<svg xmlns="http://www.w3.org/2000/svg" version="1.1" xmlns:xlink="http://www.w3.org/1999/xlink" xmlns:svgjs="http://svgjs.dev/svgjs" width="1000" height="1000" viewBox="0 0 1000 1000"><rect width="1000" height="1000" fill="#000000"></rect><g transform="matrix(0.7,0,0,0.7,149.57575824235778,463.1500681692256)"><svg viewBox="0 0 396 42" data-background-color="#fffdfd" preserveAspectRatio="xMidYMid meet" height="106" width="1000" xmlns="http://www.w3.org/2000/svg" xmlns:xlink="http://www.w3.org/1999/xlink"><g id="tight-bounds" transform="matrix(1,0,0,1,0.23999966168605624,-0.14154802031640656)"><svg viewBox="0 0 395.52 42.28309604063279" height="42.28309604063279" width="395.52"><g><svg viewBox="0 0 455.32431989126627 48.67648146136281" height="42.28309604063279" width="395.52"><g transform="matrix(1,0,0,1,0,6.727357423386611)"><svg viewBox="0 0 395.52 35.22176661458959" height="35.22176661458959" width="395.52"><g id="textblocktransform"><svg viewBox="0 0 395.52 35.22176661458959" height="35.22176661458959" width="395.52" id="textblock"><g><svg viewBox="0 0 395.52 35.22176661458959" height="35.22176661458959" width="395.52"><g transform="matrix(1,0,0,1,0,0)"><svg width="395.52" viewBox="0.9500000476837158 -36.349998474121094 422.3299865722656 37.04999923706055" height="35.22176661458959" data-palette-color="#e63946"><g class="wordmark-text-0" data-fill-palette-color="primary" id="text-0"><path d="M17.85-10.95L17.85-10.95 11.9-10.95 9.95 0 0.95 0 7.3-36 22.55-36Q28.2-36 30.6-33.4L30.6-33.4Q32.35-31.4 32.35-28.3L32.35-28.3Q32.35-27.25 32.15-26.1L32.15-26.1 31.15-20.45Q30.4-16.3 26.75-13.63 23.1-10.95 17.85-10.95ZM19.4-28.2L19.4-28.2 14.9-28.2 13.25-18.75 17.7-18.75Q21.8-18.75 22.45-22.4L22.45-22.4 22.8-24.45Q22.9-24.9 22.9-25.65 22.9-26.4 22.15-27.3 21.4-28.2 19.4-28.2ZM60.15 0L50.65 0 50.95-7.85 42.6-7.85 40.15 0 30.6 0 43.45-36 59.95-36 60.15 0ZM51.75-27.25L48.6-27.25 44.65-14.55 51.2-14.55 51.75-27.25ZM87.8-36L97.55-36 96.7-8.75 97.84-8.75 106.55-36 116.35-36 104 0 89 0 90.35-23.05 83.65 0 68.65 0 69-36 78.8-36 77.9-8.75 79.05-8.75 87.8-36ZM124.44-10.25L124.44-10.25Q124.44-6.8 129.42-6.8 134.39-6.8 134.39-9.9L134.39-9.9Q134.39-11.55 132.69-12.6 130.99-13.65 128.57-14.35 126.14-15.05 123.72-15.98 121.29-16.9 119.59-18.88 117.89-20.85 117.89-23.8L117.89-23.8Q117.89-36.35 134.04-36.35L134.04-36.35Q139.94-36.35 142.97-34.13 145.99-31.9 145.99-27.95L145.99-27.95Q145.99-26.5 145.62-25.18 145.24-23.85 144.84-23.3L144.84-23.3 144.44-22.7 135.59-22.7Q136.69-23.85 136.69-25.6L136.69-25.6Q136.69-28.85 132.44-28.85L132.44-28.85Q127.09-28.85 127.09-25.45L127.09-25.45Q127.09-23.75 128.79-22.75 130.49-21.75 132.92-21.18 135.34-20.6 137.79-19.75 140.24-18.9 141.94-16.93 143.64-14.95 143.64-11.8L143.64-11.8Q143.64-5.45 139.84-2.38 136.04 0.7 128.14 0.7 120.24 0.7 117.34-2.1L117.34-2.1Q115.19-4.2 115.19-7.9L115.19-7.9Q115.19-9.3 115.49-10.95L115.49-10.95 115.64-11.75 124.64-11.75 124.54-11.15Q124.44-10.65 124.44-10.25ZM166.74-36.35L166.74-36.35Q178.79-36.35 178.79-26.5L178.79-26.5Q178.79-24.85 178.44-22.95L178.44-22.95 176.69-12.95Q175.49-6 171.49-2.65 167.49 0.7 160.24 0.7 152.99 0.7 150.14-2.65L150.14-2.65Q148.19-4.95 148.19-9L148.19-9Q148.19-10.8 148.59-12.95L148.59-12.95 150.34-22.95Q152.69-36.35 166.74-36.35ZM161.59-7.05L161.59-7.05Q164.09-7.05 165.59-8.35 167.09-9.65 167.69-13.15L167.69-13.15 169.39-22.75Q169.54-23.75 169.54-24.55L169.54-24.55Q169.54-28.6 165.44-28.6L165.44-28.6Q160.29-28.5 159.29-22.75L159.29-22.75 157.59-13.15Q157.39-11.9 157.39-10.55L157.39-10.55Q157.39-7.05 161.59-7.05ZM186.84-36L196.24-36 201.59-18.75 213.09-36 222.54-36 216.19 0 207.14 0 210.74-20.3 203.04-8.2 196.49-8.2 193.09-20.3 189.49 0 180.49 0 186.84-36ZM249.79-7.8L248.39 0 223.29 0 229.64-36 254.74-36 253.34-28.2 237.24-28.2 236.09-21.45 249.39-21.45 247.99-13.65 234.69-13.65 233.69-7.8 249.79-7.8Z" fill="#ffffff" data-fill-palette-color="primary"></path><path d="M304.74-36L303.34-28.2 291.04-28.2 286.09 0 277.04 0 281.99-28.2 269.64-28.2 271.04-36 304.74-36ZM329.79 0L320.29 0 320.59-7.85 312.24-7.85 309.79 0 300.24 0 313.09-36 329.59-36 329.79 0ZM321.39-27.25L318.24-27.25 314.29-14.55 320.84-14.55 321.39-27.25ZM358.73-7.8L357.33 0 334.53 0 340.88-36 349.88-36 344.93-7.8 358.73-7.8ZM387.83-7.8L386.43 0 361.33 0 367.68-36 392.78-36 391.38-28.2 375.28-28.2 374.13-21.45 387.43-21.45 386.03-13.65 372.73-13.65 371.73-7.8 387.83-7.8ZM401.73-10.25L401.73-10.25Q401.73-6.8 406.7-6.8 411.68-6.8 411.68-9.9L411.68-9.9Q411.68-11.55 409.98-12.6 408.28-13.65 405.85-14.35 403.43-15.05 401-15.98 398.58-16.9 396.88-18.88 395.18-20.85 395.18-23.8L395.18-23.8Q395.18-36.35 411.33-36.35L411.33-36.35Q417.23-36.35 420.25-34.13 423.28-31.9 423.28-27.95L423.28-27.95Q423.28-26.5 422.9-25.18 422.53-23.85 422.13-23.3L422.13-23.3 421.73-22.7 412.88-22.7Q413.98-23.85 413.98-25.6L413.98-25.6Q413.98-28.85 409.73-28.85L409.73-28.85Q404.38-28.85 404.38-25.45L404.38-25.45Q404.38-23.75 406.08-22.75 407.78-21.75 410.2-21.18 412.63-20.6 415.08-19.75 417.53-18.9 419.23-16.93 420.93-14.95 420.93-11.8L420.93-11.8Q420.93-5.45 417.13-2.38 413.33 0.7 405.43 0.7 397.53 0.7 394.63-2.1L394.63-2.1Q392.48-4.2 392.48-7.9L392.48-7.9Q392.48-9.3 392.78-10.95L392.78-10.95 392.93-11.75 401.93-11.75 401.83-11.15Q401.73-10.65 401.73-10.25Z" fill="#ffffff" data-fill-palette-color="secondary"></path></g></svg></g></svg></g></svg></g></svg></g><g transform="matrix(1,0,0,1,403.8350137753058,0)"><svg viewBox="0 0 51.489306115960446 48.67648146136281" height="48.67648146136281" width="51.489306115960446"><g><svg xmlns="http://www.w3.org/2000/svg" xmlns:xlink="http://www.w3.org/1999/xlink" version="1.1" x="0" y="0" viewBox="2.522716522216797 5.008135795593262 90.95254516601562 85.98387145996094" enable-background="new 0 0 96 96" xml:space="preserve" height="48.67648146136281" width="51.489306115960446" class="icon-icon-0" data-fill-palette-color="accent" id="icon-0"><path d="M48 38.124c-19.46 0-34 20.063-34 38 0 5.724 1.448 9.655 4.428 12.032 3.152 2.516 7.552 2.836 11.032 2.836 2.504 0 5.236-0.192 8.132-0.4 6.672-0.46 14.152-0.46 20.816 0 2.9 0.208 5.624 0.4 8.132 0.4 7.64 0 15.46-1.764 15.46-14.868C82 58.188 67.46 38.124 48 38.124z" fill="#ffffff" data-fill-palette-color="accent"></path><path d="M20.152 49.229c2.312-0.944 4.072-2.82 4.96-5.272 1.168-3.24 0.752-7.148-1.14-10.728-3.3-6.22-10.548-9.688-15.832-7.516-2.312 0.944-4.072 2.824-4.96 5.28-1.176 3.236-0.76 7.144 1.136 10.728 2.6 4.912 7.524 8.204 12.252 8.204C17.828 49.92 19.028 49.688 20.152 49.229z" fill="#ffffff" data-fill-palette-color="accent"></path><path d="M38.884 37.488c0.504 0 1.012-0.052 1.52-0.152 5.96-1.22 9.552-9.204 8.18-18.176-1.36-8.956-7.316-15.22-13.288-14-5.956 1.216-9.548 9.196-8.176 18.172C28.368 31.536 33.32 37.488 38.884 37.488z" fill="#ffffff" data-fill-palette-color="accent"></path><path d="M92.82 30.992c-0.885-2.452-2.648-4.336-4.961-5.28-5.291-2.18-12.539 1.296-15.827 7.516-1.9 3.584-2.308 7.492-1.136 10.728 0.888 2.452 2.647 4.328 4.955 5.272 1.116 0.455 2.328 0.695 3.584 0.695l0 0c4.729 0 9.648-3.296 12.244-8.204C93.58 38.14 93.992 34.236 92.82 30.992z" fill="#ffffff" data-fill-palette-color="accent"></path><path d="M59.584 37.336c0.508 0.1 1.016 0.152 1.52 0.152l0 0c5.568 0 10.513-5.952 11.76-14.156 1.369-8.976-2.227-16.956-8.172-18.172-5.983-1.22-11.928 5.044-13.295 14C50.04 28.132 53.632 36.116 59.584 37.336z" fill="#ffffff" data-fill-palette-color="accent"></path></svg></g></svg></g></svg></g><defs></defs></svg><rect width="395.52" height="42.28309604063279" fill="none" stroke="none" visibility="hidden"></rect></g></svg></g></svg>